<mxfile host="app.diagrams.net" modified="2023-09-05T11:43:50.826Z" agent="Mozilla/5.0 (Windows NT 10.0; Win64; x64) AppleWebKit/537.36 (KHTML, like Gecko) Chrome/116.0.0.0 Safari/537.36" etag="KcJuLSaLvVdJxEYvB42d" version="21.7.2" type="device">
  <diagram name="Seite-1" id="9GvOMCbGVrDvbqItWYvp">
    <mxGraphModel dx="1399" dy="774" grid="1" gridSize="10" guides="1" tooltips="1" connect="1" arrows="1" fold="1" page="1" pageScale="1" pageWidth="827" pageHeight="1169" math="0" shadow="0">
      <root>
        <mxCell id="0" />
        <mxCell id="1" parent="0" />
        <mxCell id="dZ2n8DE3KgKb0NOqxwRK-1" value="IN" style="whiteSpace=wrap;html=1;aspect=fixed;" vertex="1" parent="1">
          <mxGeometry x="140" y="240" width="80" height="80" as="geometry" />
        </mxCell>
        <mxCell id="dZ2n8DE3KgKb0NOqxwRK-2" value="&#xa;&lt;ul style=&quot;box-sizing: border-box; padding-left: 0px; margin-top: 0px; margin-bottom: 0px; list-style: none; display: flex; flex-direction: row; color: rgb(201, 209, 217); font-family: -apple-system, BlinkMacSystemFont, &amp;quot;Segoe UI&amp;quot;, &amp;quot;Noto Sans&amp;quot;, Helvetica, Arial, sans-serif, &amp;quot;Apple Color Emoji&amp;quot;, &amp;quot;Segoe UI Emoji&amp;quot;; font-size: 14px; font-style: normal; font-variant-ligatures: normal; font-variant-caps: normal; font-weight: 400; letter-spacing: normal; orphans: 2; text-align: start; text-indent: 0px; text-transform: none; widows: 2; word-spacing: 0px; -webkit-text-stroke-width: 0px; background-color: rgb(1, 4, 9); text-decoration-thickness: initial; text-decoration-style: initial; text-decoration-color: initial;&quot; class=&quot;list-style-none&quot; role=&quot;list&quot;&gt;&lt;li style=&quot;box-sizing: border-box; list-style: none; display: inline-grid; grid-auto-flow: column; align-items: center; flex: 0 100 max-content;&quot;&gt;&lt;a style=&quot;box-sizing: border-box; background-color: transparent; color: inherit; text-decoration: none !important; display: flex; align-items: center; min-width: 3ch; line-height: var(--text-body-lineHeight-medium, 1.4285714286); border-radius: var(--borderRadius-medium, 6px); padding-inline: var(--control-medium-paddingInline-condensed, 8px); padding-block: var(--control-medium-paddingBlock, 6px);&quot; class=&quot;AppHeader-context-item&quot; data-view-component=&quot;true&quot; href=&quot;https://github.com/FAIRiCUBE&quot; data-octo-dimensions=&quot;link_type:self&quot; data-octo-click=&quot;hovercard-link-click&quot; data-hovercard-url=&quot;/orgs/FAIRiCUBE/hovercard&quot; data-hovercard-type=&quot;organization&quot; data-analytics-event=&quot;{&amp;quot;category&amp;quot;:&amp;quot;SiteHeaderComponent&amp;quot;,&amp;quot;action&amp;quot;:&amp;quot;context_region_crumb&amp;quot;,&amp;quot;label&amp;quot;:&amp;quot;FAIRiCUBE&amp;quot;,&amp;quot;screen_size&amp;quot;:&amp;quot;full&amp;quot;}&quot;&gt;&lt;span style=&quot;box-sizing: border-box; display: inline-block; overflow: hidden; text-overflow: ellipsis;&quot; class=&quot;AppHeader-context-item-label&quot;&gt;FAIRiCUBE&lt;/span&gt;&lt;/a&gt;&lt;span style=&quot;box-sizing: border-box; color: var(--color-fg-muted);&quot; class=&quot;AppHeader-context-item-separator&quot;&gt;/&lt;/span&gt;&lt;/li&gt;&lt;li style=&quot;box-sizing: border-box; list-style: none; display: inline-grid; grid-auto-flow: column; align-items: center; flex: 0 1 max-content;&quot;&gt;&lt;a style=&quot;box-sizing: border-box; background-color: transparent; color: inherit; text-decoration: none !important; display: flex; align-items: center; min-width: 3ch; line-height: var(--text-body-lineHeight-medium, 1.4285714286); border-radius: var(--borderRadius-medium, 6px); padding-inline: var(--control-medium-paddingInline-condensed, 8px); padding-block: var(--control-medium-paddingBlock, 6px); font-weight: var(--base-text-weight-semibold, 600);&quot; class=&quot;AppHeader-context-item&quot; data-view-component=&quot;true&quot; href=&quot;https://github.com/FAIRiCUBE/uc1-urban-climate&quot; data-analytics-event=&quot;{&amp;quot;category&amp;quot;:&amp;quot;SiteHeaderComponent&amp;quot;,&amp;quot;action&amp;quot;:&amp;quot;context_region_crumb&amp;quot;,&amp;quot;label&amp;quot;:&amp;quot;uc1-urban-climate&amp;quot;,&amp;quot;screen_size&amp;quot;:&amp;quot;full&amp;quot;}&quot;&gt;&lt;span style=&quot;box-sizing: border-box; display: inline-block; overflow: hidden; text-overflow: ellipsis;&quot; class=&quot;AppHeader-context-item-label&quot;&gt;uc1-urban-climate&lt;/span&gt;&lt;/a&gt;&lt;/li&gt;&lt;/ul&gt;&#xa;&#xa;" style="text;html=1;strokeColor=none;fillColor=none;align=center;verticalAlign=middle;whiteSpace=wrap;rounded=0;" vertex="1" parent="1">
          <mxGeometry x="40" y="90" width="520" height="100" as="geometry" />
        </mxCell>
        <mxCell id="dZ2n8DE3KgKb0NOqxwRK-3" value="" style="shape=step;perimeter=stepPerimeter;whiteSpace=wrap;html=1;fixedSize=1;" vertex="1" parent="1">
          <mxGeometry x="250" y="240" width="120" height="80" as="geometry" />
        </mxCell>
        <mxCell id="dZ2n8DE3KgKb0NOqxwRK-4" value="out" style="shape=cylinder3;whiteSpace=wrap;html=1;boundedLbl=1;backgroundOutline=1;size=15;" vertex="1" parent="1">
          <mxGeometry x="420" y="240" width="60" height="80" as="geometry" />
        </mxCell>
      </root>
    </mxGraphModel>
  </diagram>
</mxfile>
